<svg width="46" height="41" viewBox="0 0 46 41" fill="none" xmlns="http://www.w3.org/2000/svg">
<path fill-rule="evenodd" clip-rule="evenodd" d="M40.1823 28.7205C38.6882 31.9379 37.6864 35.382 36.7428 38.7268C36.5423 39.4475 37.01 40.2046 37.7926 40.3631C38.5686 40.5741 39.3628 40.1464 39.5561 39.4781C40.4676 36.2358 41.4255 32.8933 42.8595 29.828C43.1689 29.1753 42.8233 28.3809 42.0853 28.0681C41.3478 27.7554 40.4923 28.0679 40.1823 28.7205Z" fill="#333333"/>
<path fill-rule="evenodd" clip-rule="evenodd" d="M26.869 16.5676C20.0653 21.1547 13.9497 26.5286 6.99749 30.9889C6.35129 31.3828 6.20579 32.2178 6.67755 32.8152C7.14988 33.4128 8.05716 33.5878 8.71051 33.1415C15.6806 28.6835 21.8135 23.312 28.6351 18.7273C29.2746 18.2791 29.397 17.4412 28.9097 16.8417C28.4158 16.2947 27.5085 16.1194 26.869 16.5676Z" fill="#333333"/>
<path fill-rule="evenodd" clip-rule="evenodd" d="M4.90873 3.31043C8.40304 3.61956 11.8973 3.92899 15.3922 4.2382C16.1877 4.34504 16.8877 3.79786 16.9491 3.0584C17.0098 2.31886 16.4041 1.70373 15.6081 1.59681C12.108 1.2869 8.6085 0.97677 5.10899 0.666945C4.30636 0.612545 3.61042 1.16006 3.55368 1.90015C3.50408 2.58779 4.10667 3.25611 4.90873 3.31043Z" fill="#333333"/>
</svg>
