<svg width="107" height="44" viewBox="0 0 107 44" fill="none" xmlns="http://www.w3.org/2000/svg">
<path d="M21.6509 0C28.8129 7.28537 36.0538 14.6545 43.2552 21.98C36.0538 29.3054 28.8094 36.6746 21.6079 44C14.4244 36.6928 7.17996 29.3236 0 22.02C7.18354 14.7128 14.4387 7.33273 21.6509 0ZM42.4566 22.0382C35.4951 14.9569 28.5086 7.84999 21.5649 0.783181C14.6428 7.82449 7.66698 14.9204 0.73769 21.969C7.68846 29.0395 14.6786 36.15 21.6294 43.2205C28.5658 36.1646 35.5453 29.065 42.4566 22.0382Z" fill="black"/>
<path d="M27.3158 34.3548C25.4393 31.987 23.545 29.6047 21.6005 27.1532C19.6631 29.5938 17.7652 31.987 15.8995 34.3365C13.8583 32.2602 11.8422 30.2021 9.74011 28.0602C9.86545 27.9582 10.0624 27.7906 10.3059 27.5903C12.1179 29.4371 13.9156 31.2694 15.767 33.1527C17.7222 30.6939 19.6381 28.2788 21.6041 25.809C23.5629 28.2751 25.4823 30.6902 27.4089 33.1162C29.2388 31.2403 31.0329 29.4044 32.9273 27.4628C33.16 27.7615 33.314 27.9618 33.4393 28.1258C31.4053 30.1948 29.3856 32.2493 27.3158 34.3548Z" fill="black"/>
<path d="M15.7282 10.7677C13.9448 12.5927 12.2295 14.3521 10.4784 16.148C10.2922 15.9768 10.1203 15.8128 10.0129 15.7145C11.9789 13.7147 13.9305 11.7294 15.9395 9.68585C17.7765 12.0281 19.7031 14.4833 21.7013 17.0295C23.5957 14.527 25.4507 12.0754 27.2519 9.69313C29.2931 11.7695 31.3236 13.8349 33.4041 15.9513C33.3397 16.0132 33.1642 16.1771 32.9708 16.3629C31.1338 14.4905 29.3218 12.6474 27.4847 10.775C25.533 13.354 23.6423 15.8529 21.7121 18.4064C19.7175 15.8602 17.7586 13.3613 15.7282 10.7677Z" fill="black"/>
<path d="M26.1055 7.42677C24.6266 9.41204 23.1333 11.4228 21.597 13.4846C20.0572 11.4119 18.5639 9.40475 17.1064 7.44499C18.6498 5.87863 20.1539 4.35599 21.6364 2.85156C23.0652 4.31228 24.5621 5.84585 26.1055 7.42677ZM25.3786 7.44864C24.0858 6.12998 22.8325 4.85868 21.64 3.64202C20.3974 4.90604 19.1368 6.18462 17.8512 7.49235C19.0652 9.12427 20.315 10.7999 21.6042 12.5338C22.8933 10.7926 24.1324 9.12427 25.3786 7.44864Z" fill="black"/>
<path d="M21.7045 30.4449C23.2586 32.3792 24.7448 34.226 26.1951 36.0291C24.6696 37.5773 23.1691 39.1035 21.6866 40.6116C20.2613 39.1436 18.7573 37.5955 17.2246 36.0182C18.6606 34.2296 20.161 32.3646 21.7045 30.4449ZM25.4896 36.0583C24.247 34.5138 22.9936 32.9583 21.7045 31.3556C20.3974 32.9802 19.1548 34.5283 17.9408 36.0364C19.2335 37.355 20.4833 38.6336 21.708 39.8831C22.9471 38.6263 24.204 37.3587 25.4896 36.0583Z" fill="black"/>
<path d="M19.3592 22.0498C20.1005 21.2958 20.9277 20.4616 21.7334 19.642C22.489 20.4216 23.3055 21.263 24.0647 22.0462C23.2876 22.833 22.464 23.6672 21.7012 24.4395C20.9814 23.7036 20.1542 22.8585 19.3592 22.0498ZM21.626 23.7437C22.2097 23.1827 22.7898 22.6217 23.3843 22.0535C22.8221 21.5071 22.2527 20.9498 21.7585 20.4689C21.2142 20.9971 20.6269 21.5654 20.036 22.1373C20.5839 22.691 21.1426 23.2556 21.626 23.7437Z" fill="black"/>
<path d="M30.8647 22.0712C31.6059 21.3172 32.4331 20.483 33.2389 19.6634C33.9945 20.4429 34.8109 21.2844 35.5701 22.0676C34.793 22.8544 33.9694 23.6886 33.2066 24.4608C32.4904 23.7286 31.6596 22.8835 30.8647 22.0712ZM33.1314 23.7687C33.7152 23.2077 34.2953 22.6467 34.8897 22.0785C34.3275 21.5321 33.7581 20.9748 33.2639 20.4939C32.7196 21.0221 32.1323 21.5904 31.5451 22.1623C32.0894 22.7123 32.648 23.2769 33.1314 23.7687Z" fill="black"/>
<path d="M33.1316 23.7692C32.6482 23.281 32.0895 22.7128 31.5452 22.1627C32.1361 21.5908 32.7198 21.0226 33.2641 20.4944C33.7547 20.9752 34.3277 21.5289 34.8899 22.0789C34.2954 22.6472 33.7117 23.2082 33.1316 23.7692Z" fill="#455274"/>
<path d="M7.64536 22.02C8.38663 21.266 9.21385 20.4318 10.0196 19.6122C10.7752 20.3917 11.5916 21.2332 12.3508 22.0164C11.5737 22.8032 10.7501 23.6373 9.98734 24.4096C9.26756 23.6738 8.44034 22.8287 7.64536 22.02ZM9.91215 23.7138C10.4959 23.1529 11.076 22.5919 11.6704 22.0236C11.1082 21.4772 10.5388 20.9199 10.0446 20.4391C9.50033 20.9673 8.91304 21.5355 8.32575 22.1074C8.87006 22.6575 9.42871 23.2257 9.91215 23.7138Z" fill="black"/>
<path d="M9.91228 23.7137C9.42884 23.2256 8.8702 22.6573 8.32588 22.1073C8.91675 21.5354 9.50046 20.9671 10.0448 20.4389C10.5354 20.9197 11.1083 21.4734 11.6706 22.0235C11.0761 22.5917 10.4924 23.1527 9.91228 23.7137Z" fill="#49664A"/>
<path d="M49.757 27.2545C49.6174 27.0905 49.356 26.9303 49.3524 26.7664C49.3345 23.3386 49.3452 19.9072 49.3524 16.4794C49.3524 16.4466 49.3989 16.4138 49.4526 16.3446C51.1572 18.0822 52.8546 19.8161 54.6129 21.612C56.4285 19.838 58.1975 18.1113 60.0274 16.3264C60.0632 16.5231 60.1134 16.6615 60.1134 16.7963C60.1169 20.0675 60.1205 23.3386 60.1098 26.6134C60.1098 26.7955 60.0596 27.0978 59.9594 27.1343C59.5296 27.2982 59.5082 26.9776 59.5117 26.6534C59.5153 24.0817 59.5117 21.51 59.5117 18.9382C59.5117 18.6031 59.5117 18.2716 59.5117 17.7325C57.8179 19.3826 56.2458 20.9089 54.6236 22.4898C53.0981 20.9235 51.5977 19.379 49.9683 17.7034C49.9683 20.9745 49.9683 24.0526 49.9683 27.127C49.8967 27.1707 49.8251 27.2108 49.757 27.2545Z" fill="black"/>
<path d="M61.9468 22.0167C61.9504 18.8949 64.3712 16.4543 67.4473 16.4616C70.4338 16.4726 72.8546 18.9787 72.8546 22.0641C72.8546 25.1604 70.3801 27.6847 67.3649 27.6702C64.3425 27.6556 61.9432 25.1494 61.9468 22.0167ZM62.5699 22.0531C62.5663 24.7961 64.7221 27.0218 67.39 27.0254C70.0471 27.0291 72.2279 24.7924 72.2315 22.0641C72.2351 19.3284 70.0686 17.11 67.3936 17.11C64.697 17.11 62.5735 19.2883 62.5699 22.0531Z" fill="black"/>
<path d="M95.3974 22.1908C95.3114 25.3053 92.8011 27.7641 89.8038 27.6694C86.7528 27.5747 84.3821 24.992 84.4609 21.8557C84.5397 18.774 87.0894 16.3771 90.2013 16.4609C93.1091 16.541 95.4797 19.1565 95.3974 22.1908ZM85.0948 22.0488C85.0912 24.7771 87.2684 27.021 89.9291 27.0247C92.5791 27.0283 94.7814 24.7808 94.7922 22.0633C94.8029 19.3532 92.6078 17.1093 89.9435 17.1056C87.2613 17.1056 85.0983 19.3095 85.0948 22.0488Z" fill="black"/>
<path d="M107 27.553C103.362 27.553 99.8272 27.553 96.1925 27.553C97.9937 23.9285 99.7592 20.3696 101.585 16.6978C103.415 20.3696 105.192 23.9249 107 27.553ZM101.582 18.1148C100.096 21.1127 98.667 23.9941 97.2166 26.9192C100.175 26.9192 103.018 26.9192 105.976 26.9192C104.497 23.954 103.061 21.08 101.582 18.1148Z" fill="black"/>
<path d="M76.9479 27.3194C76.7617 27.1774 76.6221 27.0717 76.443 26.937C78.7062 23.7387 80.9551 20.5586 83.3007 17.2401C82.9605 17.2401 82.7349 17.2401 82.5093 17.2401C79.8271 17.2401 77.1413 17.2438 74.4591 17.2328C74.212 17.2328 73.7895 17.3858 73.8683 16.8868C73.8897 16.7593 74.2514 16.6063 74.4591 16.6063C77.7608 16.5881 81.0625 16.5954 84.5361 16.5954C81.9614 20.2344 79.4654 23.7678 76.9479 27.3194Z" fill="black"/>
</svg>
